<mxfile host="app.diagrams.net" modified="2023-11-06T12:16:51.139Z" agent="Mozilla/5.0 (Windows NT 10.0; Win64; x64) AppleWebKit/537.36 (KHTML, like Gecko) Chrome/119.0.0.0 Safari/537.36 Edg/119.0.0.0" etag="yxiLF2-tLP9dIf0y56JV" version="22.0.8" type="google">
  <diagram name="Страница — 1" id="0Kd2OWjKOKUlCLltMhp7">
    <mxGraphModel grid="1" page="1" gridSize="10" guides="1" tooltips="1" connect="1" arrows="1" fold="1" pageScale="1" pageWidth="827" pageHeight="1169" math="0" shadow="0">
      <root>
        <mxCell id="0" />
        <mxCell id="1" parent="0" />
        <mxCell id="Xg8EwCqYOZECqKLcWaMW-1" value="&lt;pre style=&quot;margin-top: 4px; margin-bottom: 4px; font-size: 14px; padding: 0px; line-height: 1.7em; overflow-x: auto; max-width: 290px; text-align: left; background-color: rgb(255, 255, 255);&quot;&gt;7&lt;br/&gt;0 0&lt;br/&gt;0 2&lt;br/&gt;2 2&lt;br/&gt;0 -2&lt;br/&gt;2 -2&lt;br/&gt;2 -1&lt;br/&gt;2 1&lt;br/&gt;2&lt;br/&gt;1 3&lt;/pre&gt;" style="rounded=0;whiteSpace=wrap;html=1;" vertex="1" parent="1">
          <mxGeometry x="40" y="70" width="60" height="260" as="geometry" />
        </mxCell>
        <mxCell id="Xg8EwCqYOZECqKLcWaMW-2" value="7 = 7 cities&lt;br&gt;1 -&amp;gt; 0 0&lt;br&gt;2-&amp;gt; 0 2&lt;br&gt;3-&amp;gt; 2 2&lt;br&gt;4-&amp;gt; 0 - 2&lt;br&gt;5-&amp;gt; 2 -2&lt;br&gt;6-&amp;gt; 2 -1&lt;br&gt;7-&amp;gt; 2 1&lt;br&gt;&lt;br&gt;2 = Машина едет&amp;nbsp; 2ребра&lt;br&gt;1 3 -&amp;gt; из города 1 в город 3" style="rounded=0;whiteSpace=wrap;html=1;" vertex="1" parent="1">
          <mxGeometry x="100" y="70" width="190" height="260" as="geometry" />
        </mxCell>
        <mxCell id="Xg8EwCqYOZECqKLcWaMW-3" value="Координаты по Х&lt;br&gt;0 0 2 0 2 2 2&lt;br&gt;(0 2)&lt;br&gt;&lt;br&gt;Координаты по Y&lt;br style=&quot;border-color: var(--border-color);&quot;&gt;0 2 2 -2 -2 -1 1&lt;br&gt;(-2 -1 0 1 2)" style="rounded=0;whiteSpace=wrap;html=1;" vertex="1" parent="1">
          <mxGeometry x="290" y="70" width="120" height="260" as="geometry" />
        </mxCell>
        <mxCell id="Xg8EwCqYOZECqKLcWaMW-5" value="-2" style="whiteSpace=wrap;html=1;aspect=fixed;" vertex="1" parent="1">
          <mxGeometry x="250" y="440" width="30" height="30" as="geometry" />
        </mxCell>
        <mxCell id="Xg8EwCqYOZECqKLcWaMW-6" value="-1" style="whiteSpace=wrap;html=1;aspect=fixed;" vertex="1" parent="1">
          <mxGeometry x="250" y="470" width="30" height="30" as="geometry" />
        </mxCell>
        <mxCell id="Xg8EwCqYOZECqKLcWaMW-7" value="-1" style="whiteSpace=wrap;html=1;aspect=fixed;" vertex="1" parent="1">
          <mxGeometry x="250" y="500" width="30" height="30" as="geometry" />
        </mxCell>
        <mxCell id="Xg8EwCqYOZECqKLcWaMW-8" value="0" style="whiteSpace=wrap;html=1;aspect=fixed;" vertex="1" parent="1">
          <mxGeometry x="250" y="530" width="30" height="30" as="geometry" />
        </mxCell>
        <mxCell id="Xg8EwCqYOZECqKLcWaMW-9" value="1" style="whiteSpace=wrap;html=1;aspect=fixed;" vertex="1" parent="1">
          <mxGeometry x="250" y="560" width="30" height="30" as="geometry" />
        </mxCell>
        <mxCell id="Xg8EwCqYOZECqKLcWaMW-10" value="2" style="whiteSpace=wrap;html=1;aspect=fixed;" vertex="1" parent="1">
          <mxGeometry x="250" y="590" width="30" height="30" as="geometry" />
        </mxCell>
        <mxCell id="Xg8EwCqYOZECqKLcWaMW-11" value="0" style="whiteSpace=wrap;html=1;aspect=fixed;" vertex="1" parent="1">
          <mxGeometry x="280" y="410" width="30" height="30" as="geometry" />
        </mxCell>
        <mxCell id="Xg8EwCqYOZECqKLcWaMW-12" value="2" style="whiteSpace=wrap;html=1;aspect=fixed;" vertex="1" parent="1">
          <mxGeometry x="310" y="410" width="30" height="30" as="geometry" />
        </mxCell>
        <mxCell id="Xg8EwCqYOZECqKLcWaMW-16" value="1" style="whiteSpace=wrap;html=1;aspect=fixed;" vertex="1" parent="1">
          <mxGeometry x="280" y="530" width="30" height="30" as="geometry" />
        </mxCell>
        <mxCell id="Xg8EwCqYOZECqKLcWaMW-17" value="2" style="whiteSpace=wrap;html=1;aspect=fixed;" vertex="1" parent="1">
          <mxGeometry x="310" y="530" width="30" height="30" as="geometry" />
        </mxCell>
        <mxCell id="Xg8EwCqYOZECqKLcWaMW-18" value="3" style="whiteSpace=wrap;html=1;aspect=fixed;" vertex="1" parent="1">
          <mxGeometry x="310" y="590" width="30" height="30" as="geometry" />
        </mxCell>
        <mxCell id="Xg8EwCqYOZECqKLcWaMW-19" value="4" style="whiteSpace=wrap;html=1;aspect=fixed;" vertex="1" parent="1">
          <mxGeometry x="280" y="440" width="30" height="30" as="geometry" />
        </mxCell>
        <mxCell id="Xg8EwCqYOZECqKLcWaMW-20" value="5" style="whiteSpace=wrap;html=1;aspect=fixed;" vertex="1" parent="1">
          <mxGeometry x="310" y="440" width="30" height="30" as="geometry" />
        </mxCell>
        <mxCell id="Xg8EwCqYOZECqKLcWaMW-21" value="6" style="whiteSpace=wrap;html=1;aspect=fixed;" vertex="1" parent="1">
          <mxGeometry x="310" y="470" width="30" height="30" as="geometry" />
        </mxCell>
        <mxCell id="Xg8EwCqYOZECqKLcWaMW-22" value="7" style="whiteSpace=wrap;html=1;aspect=fixed;" vertex="1" parent="1">
          <mxGeometry x="310" y="560" width="30" height="30" as="geometry" />
        </mxCell>
        <mxCell id="Xg8EwCqYOZECqKLcWaMW-25" value="-99" style="whiteSpace=wrap;html=1;aspect=fixed;" vertex="1" parent="1">
          <mxGeometry x="280" y="470" width="30" height="30" as="geometry" />
        </mxCell>
        <mxCell id="Xg8EwCqYOZECqKLcWaMW-26" value="-99" style="whiteSpace=wrap;html=1;aspect=fixed;" vertex="1" parent="1">
          <mxGeometry x="280" y="500" width="30" height="30" as="geometry" />
        </mxCell>
        <mxCell id="Xg8EwCqYOZECqKLcWaMW-27" value="-99" style="whiteSpace=wrap;html=1;aspect=fixed;" vertex="1" parent="1">
          <mxGeometry x="310" y="500" width="30" height="30" as="geometry" />
        </mxCell>
        <mxCell id="Xg8EwCqYOZECqKLcWaMW-28" value="-99" style="whiteSpace=wrap;html=1;aspect=fixed;" vertex="1" parent="1">
          <mxGeometry x="280" y="560" width="30" height="30" as="geometry" />
        </mxCell>
        <mxCell id="Xg8EwCqYOZECqKLcWaMW-29" value="-99" style="whiteSpace=wrap;html=1;aspect=fixed;" vertex="1" parent="1">
          <mxGeometry x="280" y="590" width="30" height="30" as="geometry" />
        </mxCell>
        <mxCell id="1JwUPKaG4YSBeHuStWOh-8" value="Расстояние между городами :Math.abs(x1 - x2) + Math.abs(y1 - y2);&lt;br&gt;Расстояние между двумя городами считается как сумма разностей по модулю&amp;nbsp;" style="rounded=0;whiteSpace=wrap;html=1;" vertex="1" parent="1">
          <mxGeometry x="40" y="330" width="721" height="80" as="geometry" />
        </mxCell>
        <mxCell id="1JwUPKaG4YSBeHuStWOh-9" value="1" style="ellipse;whiteSpace=wrap;html=1;aspect=fixed;" vertex="1" parent="1">
          <mxGeometry x="200" y="815" width="30" height="30" as="geometry" />
        </mxCell>
        <mxCell id="1JwUPKaG4YSBeHuStWOh-10" value="2" style="ellipse;whiteSpace=wrap;html=1;aspect=fixed;" vertex="1" parent="1">
          <mxGeometry x="270" y="800" width="30" height="30" as="geometry" />
        </mxCell>
        <mxCell id="1JwUPKaG4YSBeHuStWOh-11" value="" style="endArrow=none;html=1;rounded=0;exitX=1;exitY=0.5;exitDx=0;exitDy=0;" edge="1" parent="1" source="1JwUPKaG4YSBeHuStWOh-9" target="1JwUPKaG4YSBeHuStWOh-10">
          <mxGeometry width="50" height="50" relative="1" as="geometry">
            <mxPoint x="250" y="920" as="sourcePoint" />
            <mxPoint x="300" y="870" as="targetPoint" />
          </mxGeometry>
        </mxCell>
        <mxCell id="1JwUPKaG4YSBeHuStWOh-12" value="0&lt;br&gt;" style="ellipse;whiteSpace=wrap;html=1;aspect=fixed;" vertex="1" parent="1">
          <mxGeometry x="120" y="730" width="30" height="30" as="geometry" />
        </mxCell>
        <mxCell id="1JwUPKaG4YSBeHuStWOh-13" value="3" style="ellipse;whiteSpace=wrap;html=1;aspect=fixed;" vertex="1" parent="1">
          <mxGeometry x="260" y="870" width="30" height="30" as="geometry" />
        </mxCell>
        <mxCell id="1JwUPKaG4YSBeHuStWOh-15" value="" style="endArrow=none;html=1;rounded=0;exitX=1;exitY=1;exitDx=0;exitDy=0;entryX=0;entryY=0;entryDx=0;entryDy=0;" edge="1" parent="1" source="1JwUPKaG4YSBeHuStWOh-9" target="1JwUPKaG4YSBeHuStWOh-13">
          <mxGeometry width="50" height="50" relative="1" as="geometry">
            <mxPoint x="240" y="845" as="sourcePoint" />
            <mxPoint x="281" y="830" as="targetPoint" />
          </mxGeometry>
        </mxCell>
        <mxCell id="1JwUPKaG4YSBeHuStWOh-17" value="4" style="ellipse;whiteSpace=wrap;html=1;aspect=fixed;" vertex="1" parent="1">
          <mxGeometry x="190" y="890" width="30" height="30" as="geometry" />
        </mxCell>
        <mxCell id="1JwUPKaG4YSBeHuStWOh-18" value="5" style="ellipse;whiteSpace=wrap;html=1;aspect=fixed;" vertex="1" parent="1">
          <mxGeometry x="240" y="750" width="30" height="30" as="geometry" />
        </mxCell>
        <mxCell id="1JwUPKaG4YSBeHuStWOh-19" value="6" style="ellipse;whiteSpace=wrap;html=1;aspect=fixed;" vertex="1" parent="1">
          <mxGeometry x="140" y="800" width="30" height="30" as="geometry" />
        </mxCell>
        <mxCell id="1JwUPKaG4YSBeHuStWOh-20" value="7" style="ellipse;whiteSpace=wrap;html=1;aspect=fixed;" vertex="1" parent="1">
          <mxGeometry x="190" y="750" width="30" height="30" as="geometry" />
        </mxCell>
        <mxCell id="1JwUPKaG4YSBeHuStWOh-21" value="" style="endArrow=none;html=1;rounded=0;exitX=0.5;exitY=1;exitDx=0;exitDy=0;entryX=0.5;entryY=0;entryDx=0;entryDy=0;" edge="1" parent="1" source="1JwUPKaG4YSBeHuStWOh-20" target="1JwUPKaG4YSBeHuStWOh-9">
          <mxGeometry width="50" height="50" relative="1" as="geometry">
            <mxPoint x="240" y="770" as="sourcePoint" />
            <mxPoint x="290" y="720" as="targetPoint" />
          </mxGeometry>
        </mxCell>
        <mxCell id="1JwUPKaG4YSBeHuStWOh-22" value="" style="endArrow=none;html=1;rounded=0;exitX=1;exitY=1;exitDx=0;exitDy=0;entryX=0;entryY=0.5;entryDx=0;entryDy=0;" edge="1" parent="1" source="1JwUPKaG4YSBeHuStWOh-19" target="1JwUPKaG4YSBeHuStWOh-9">
          <mxGeometry width="50" height="50" relative="1" as="geometry">
            <mxPoint x="215" y="790" as="sourcePoint" />
            <mxPoint x="225" y="830" as="targetPoint" />
          </mxGeometry>
        </mxCell>
        <mxCell id="1JwUPKaG4YSBeHuStWOh-23" value="" style="endArrow=none;html=1;rounded=0;exitX=0;exitY=1;exitDx=0;exitDy=0;entryX=1;entryY=0;entryDx=0;entryDy=0;" edge="1" parent="1" source="1JwUPKaG4YSBeHuStWOh-18" target="1JwUPKaG4YSBeHuStWOh-9">
          <mxGeometry width="50" height="50" relative="1" as="geometry">
            <mxPoint x="225" y="800" as="sourcePoint" />
            <mxPoint x="235" y="840" as="targetPoint" />
          </mxGeometry>
        </mxCell>
        <mxCell id="1JwUPKaG4YSBeHuStWOh-24" value="" style="endArrow=none;html=1;rounded=0;exitX=0.5;exitY=1;exitDx=0;exitDy=0;entryX=0.5;entryY=0;entryDx=0;entryDy=0;" edge="1" parent="1" source="1JwUPKaG4YSBeHuStWOh-9" target="1JwUPKaG4YSBeHuStWOh-17">
          <mxGeometry width="50" height="50" relative="1" as="geometry">
            <mxPoint x="235" y="810" as="sourcePoint" />
            <mxPoint x="245" y="850" as="targetPoint" />
          </mxGeometry>
        </mxCell>
        <mxCell id="1JwUPKaG4YSBeHuStWOh-25" value="" style="endArrow=none;html=1;rounded=0;entryX=0.5;entryY=1;entryDx=0;entryDy=0;exitX=0.5;exitY=0;exitDx=0;exitDy=0;" edge="1" parent="1" source="1JwUPKaG4YSBeHuStWOh-13" target="1JwUPKaG4YSBeHuStWOh-10">
          <mxGeometry width="50" height="50" relative="1" as="geometry">
            <mxPoint x="340" y="880" as="sourcePoint" />
            <mxPoint x="390" y="830" as="targetPoint" />
          </mxGeometry>
        </mxCell>
        <mxCell id="1JwUPKaG4YSBeHuStWOh-26" value="" style="endArrow=none;html=1;rounded=0;entryX=1;entryY=1;entryDx=0;entryDy=0;exitX=0;exitY=0;exitDx=0;exitDy=0;" edge="1" parent="1" source="1JwUPKaG4YSBeHuStWOh-10" target="1JwUPKaG4YSBeHuStWOh-18">
          <mxGeometry width="50" height="50" relative="1" as="geometry">
            <mxPoint x="320" y="810" as="sourcePoint" />
            <mxPoint x="370" y="760" as="targetPoint" />
          </mxGeometry>
        </mxCell>
        <mxCell id="1JwUPKaG4YSBeHuStWOh-27" value="" style="endArrow=none;html=1;rounded=0;entryX=0;entryY=0.5;entryDx=0;entryDy=0;exitX=1;exitY=0.5;exitDx=0;exitDy=0;" edge="1" parent="1" source="1JwUPKaG4YSBeHuStWOh-19" target="1JwUPKaG4YSBeHuStWOh-10">
          <mxGeometry width="50" height="50" relative="1" as="geometry">
            <mxPoint x="300" y="870" as="sourcePoint" />
            <mxPoint x="350" y="820" as="targetPoint" />
          </mxGeometry>
        </mxCell>
        <mxCell id="1JwUPKaG4YSBeHuStWOh-28" value="" style="endArrow=none;html=1;rounded=0;entryX=0.01;entryY=0.303;entryDx=0;entryDy=0;exitX=1;exitY=1;exitDx=0;exitDy=0;entryPerimeter=0;" edge="1" parent="1" source="1JwUPKaG4YSBeHuStWOh-20" target="1JwUPKaG4YSBeHuStWOh-10">
          <mxGeometry width="50" height="50" relative="1" as="geometry">
            <mxPoint x="310" y="800" as="sourcePoint" />
            <mxPoint x="360" y="750" as="targetPoint" />
          </mxGeometry>
        </mxCell>
        <mxCell id="1JwUPKaG4YSBeHuStWOh-29" value="" style="endArrow=none;html=1;rounded=0;entryX=0;entryY=0.5;entryDx=0;entryDy=0;exitX=1;exitY=0.5;exitDx=0;exitDy=0;" edge="1" parent="1" source="1JwUPKaG4YSBeHuStWOh-17" target="1JwUPKaG4YSBeHuStWOh-13">
          <mxGeometry width="50" height="50" relative="1" as="geometry">
            <mxPoint x="250" y="990" as="sourcePoint" />
            <mxPoint x="300" y="940" as="targetPoint" />
          </mxGeometry>
        </mxCell>
        <mxCell id="KRmmrRrV53Fl_VYTLTsj-1" value="" style="endArrow=none;html=1;rounded=0;exitX=1;exitY=0;exitDx=0;exitDy=0;entryX=0.5;entryY=1;entryDx=0;entryDy=0;" edge="1" parent="1" source="1JwUPKaG4YSBeHuStWOh-17" target="1JwUPKaG4YSBeHuStWOh-18">
          <mxGeometry width="50" height="50" relative="1" as="geometry">
            <mxPoint x="340" y="850" as="sourcePoint" />
            <mxPoint x="390" y="800" as="targetPoint" />
          </mxGeometry>
        </mxCell>
        <mxCell id="KRmmrRrV53Fl_VYTLTsj-2" value="" style="endArrow=none;html=1;rounded=0;entryX=0.5;entryY=1;entryDx=0;entryDy=0;exitX=0;exitY=0;exitDx=0;exitDy=0;" edge="1" parent="1" source="1JwUPKaG4YSBeHuStWOh-17" target="1JwUPKaG4YSBeHuStWOh-19">
          <mxGeometry width="50" height="50" relative="1" as="geometry">
            <mxPoint x="130" y="930" as="sourcePoint" />
            <mxPoint x="180" y="880" as="targetPoint" />
          </mxGeometry>
        </mxCell>
        <mxCell id="KRmmrRrV53Fl_VYTLTsj-3" value="" style="endArrow=none;html=1;rounded=0;entryX=0;entryY=1;entryDx=0;entryDy=0;exitX=0.315;exitY=0.03;exitDx=0;exitDy=0;exitPerimeter=0;" edge="1" parent="1" source="1JwUPKaG4YSBeHuStWOh-17" target="1JwUPKaG4YSBeHuStWOh-20">
          <mxGeometry width="50" height="50" relative="1" as="geometry">
            <mxPoint x="120" y="930" as="sourcePoint" />
            <mxPoint x="170" y="880" as="targetPoint" />
          </mxGeometry>
        </mxCell>
        <mxCell id="KRmmrRrV53Fl_VYTLTsj-4" value="From 1 to 3, distance = 2&lt;br&gt;answer = 2" style="rounded=0;whiteSpace=wrap;html=1;" vertex="1" parent="1">
          <mxGeometry x="135" y="660" width="160" height="60" as="geometry" />
        </mxCell>
        <mxCell id="KRmmrRrV53Fl_VYTLTsj-5" value="&lt;div&gt;Numbers0&amp;nbsp; 1&amp;nbsp; 2&amp;nbsp; 3&amp;nbsp; 4&amp;nbsp; 5&amp;nbsp; 6&amp;nbsp; 7&lt;/div&gt;&lt;div&gt;City N0 : [0, 0, 0, 0, 0, 0, 0, 0]&lt;/div&gt;&lt;div&gt;City N1 : [0, 0, 2, 4, 2, 4, 3, 3]&lt;/div&gt;&lt;div&gt;City N2 : [0, 2, 0, 2, 4, 6, 5, 3]&lt;/div&gt;&lt;div&gt;City N3 : [0, 4, 2, 0, 6, 4, 3, 1]&lt;/div&gt;&lt;div&gt;City N4 : [0, 2, 4, 6, 0, 2, 3, 5]&lt;/div&gt;&lt;div&gt;City N5 : [0, 4, 6, 4, 2, 0, 1, 3]&lt;/div&gt;&lt;div&gt;City N6 : [0, 3, 5, 3, 3, 1, 0, 2]&lt;/div&gt;&lt;div&gt;City N7 : [0, 3, 3, 1, 5, 3, 2, 0]&lt;/div&gt;" style="rounded=0;whiteSpace=wrap;html=1;" vertex="1" parent="1">
          <mxGeometry x="319" y="750" width="201" height="160" as="geometry" />
        </mxCell>
        <mxCell id="KRmmrRrV53Fl_VYTLTsj-6" value="&lt;div&gt;Numbers&amp;nbsp; 0&amp;nbsp; 1&amp;nbsp; 2&amp;nbsp; 3&amp;nbsp; 4&amp;nbsp;&amp;nbsp;&lt;/div&gt;&lt;div&gt;City N0 : [0, 0, 0, 0, 0]&lt;/div&gt;&lt;div&gt;City N1 : [0, 0, 1, 1, 2]&lt;/div&gt;&lt;div&gt;City N2 : [0, 1, 0, 2, 1]&lt;/div&gt;&lt;div&gt;City N3 : [0, 1, 2, 0, 1]&lt;/div&gt;&lt;div&gt;City N4 : [0, 2, 1, 1, 0]&lt;/div&gt;" style="rounded=0;whiteSpace=wrap;html=1;" vertex="1" parent="1">
          <mxGeometry x="329" y="980" width="191" height="160" as="geometry" />
        </mxCell>
        <mxCell id="KRmmrRrV53Fl_VYTLTsj-7" value="From 1 to 4, distance = 2&lt;br&gt;answer = 1" style="rounded=0;whiteSpace=wrap;html=1;" vertex="1" parent="1">
          <mxGeometry x="100" y="960" width="160" height="60" as="geometry" />
        </mxCell>
        <mxCell id="KRmmrRrV53Fl_VYTLTsj-8" value="&lt;div&gt;Numbers :&amp;nbsp; 0&amp;nbsp; 1&amp;nbsp; 2&amp;nbsp; 3&amp;nbsp; 4&amp;nbsp; &amp;nbsp;&amp;nbsp;&lt;/div&gt;&lt;div&gt;City N0 : [0, 0, 0, 0, 0]&lt;/div&gt;&lt;div&gt;City N1 : [0, 0, 2, 2, 4]&lt;/div&gt;&lt;div&gt;City N2 : [0, 2, 0, 4, 2]&lt;/div&gt;&lt;div&gt;City N3 : [0, 2, 4, 0, 2]&lt;/div&gt;&lt;div&gt;City N4 : [0, 4, 2, 2, 0]&lt;/div&gt;" style="rounded=0;whiteSpace=wrap;html=1;" vertex="1" parent="1">
          <mxGeometry x="340" y="1280" width="191" height="160" as="geometry" />
        </mxCell>
        <mxCell id="KRmmrRrV53Fl_VYTLTsj-9" value="From 1 to 4, distance = 1&lt;br&gt;answer = -1" style="rounded=0;whiteSpace=wrap;html=1;" vertex="1" parent="1">
          <mxGeometry x="115" y="1230" width="160" height="60" as="geometry" />
        </mxCell>
        <mxCell id="KRmmrRrV53Fl_VYTLTsj-11" value="1" style="ellipse;whiteSpace=wrap;html=1;aspect=fixed;" vertex="1" parent="1">
          <mxGeometry x="170" y="1100" width="30" height="30" as="geometry" />
        </mxCell>
        <mxCell id="KRmmrRrV53Fl_VYTLTsj-12" value="4" style="ellipse;whiteSpace=wrap;html=1;aspect=fixed;" vertex="1" parent="1">
          <mxGeometry x="220" y="1070" width="30" height="30" as="geometry" />
        </mxCell>
        <mxCell id="KRmmrRrV53Fl_VYTLTsj-13" value="" style="endArrow=none;html=1;rounded=0;entryX=0;entryY=1;entryDx=0;entryDy=0;exitX=1;exitY=0;exitDx=0;exitDy=0;" edge="1" parent="1" source="KRmmrRrV53Fl_VYTLTsj-11" target="KRmmrRrV53Fl_VYTLTsj-12">
          <mxGeometry width="50" height="50" relative="1" as="geometry">
            <mxPoint x="150" y="1100" as="sourcePoint" />
            <mxPoint x="200" y="1050" as="targetPoint" />
          </mxGeometry>
        </mxCell>
        <mxCell id="KRmmrRrV53Fl_VYTLTsj-14" value="2" style="ellipse;whiteSpace=wrap;html=1;aspect=fixed;" vertex="1" parent="1">
          <mxGeometry x="130" y="1060" width="30" height="30" as="geometry" />
        </mxCell>
        <mxCell id="KRmmrRrV53Fl_VYTLTsj-15" value="3" style="ellipse;whiteSpace=wrap;html=1;aspect=fixed;" vertex="1" parent="1">
          <mxGeometry x="190" y="1030" width="30" height="30" as="geometry" />
        </mxCell>
        <mxCell id="KRmmrRrV53Fl_VYTLTsj-16" value="" style="endArrow=none;html=1;rounded=0;entryX=0;entryY=1;entryDx=0;entryDy=0;exitX=1;exitY=0;exitDx=0;exitDy=0;" edge="1" parent="1" source="KRmmrRrV53Fl_VYTLTsj-14" target="KRmmrRrV53Fl_VYTLTsj-15">
          <mxGeometry width="50" height="50" relative="1" as="geometry">
            <mxPoint x="120" y="1130" as="sourcePoint" />
            <mxPoint x="170" y="1080" as="targetPoint" />
          </mxGeometry>
        </mxCell>
        <mxCell id="k-s2Nxh4-u5XfRPvkI3Q-1" value="" style="endArrow=none;html=1;rounded=0;entryX=0;entryY=1;entryDx=0;entryDy=0;exitX=0.945;exitY=0.367;exitDx=0;exitDy=0;exitPerimeter=0;" edge="1" parent="1" source="1JwUPKaG4YSBeHuStWOh-17" target="1JwUPKaG4YSBeHuStWOh-10">
          <mxGeometry width="50" height="50" relative="1" as="geometry">
            <mxPoint x="90" y="900" as="sourcePoint" />
            <mxPoint x="140" y="850" as="targetPoint" />
          </mxGeometry>
        </mxCell>
        <mxCell id="k-s2Nxh4-u5XfRPvkI3Q-2" value="" style="endArrow=none;html=1;rounded=0;entryX=0.5;entryY=1;entryDx=0;entryDy=0;exitX=0.316;exitY=0.053;exitDx=0;exitDy=0;exitPerimeter=0;" edge="1" parent="1" source="1JwUPKaG4YSBeHuStWOh-13" target="1JwUPKaG4YSBeHuStWOh-18">
          <mxGeometry width="50" height="50" relative="1" as="geometry">
            <mxPoint x="70" y="880" as="sourcePoint" />
            <mxPoint x="120" y="830" as="targetPoint" />
          </mxGeometry>
        </mxCell>
        <mxCell id="k-s2Nxh4-u5XfRPvkI3Q-3" value="" style="endArrow=none;html=1;rounded=0;entryX=1;entryY=1;entryDx=0;entryDy=0;exitX=0.083;exitY=0.322;exitDx=0;exitDy=0;exitPerimeter=0;" edge="1" parent="1" source="1JwUPKaG4YSBeHuStWOh-13" target="1JwUPKaG4YSBeHuStWOh-19">
          <mxGeometry width="50" height="50" relative="1" as="geometry">
            <mxPoint x="60" y="900" as="sourcePoint" />
            <mxPoint x="110" y="850" as="targetPoint" />
          </mxGeometry>
        </mxCell>
        <mxCell id="k-s2Nxh4-u5XfRPvkI3Q-4" value="" style="endArrow=none;html=1;rounded=0;entryX=0;entryY=0.5;entryDx=0;entryDy=0;exitX=1;exitY=0.5;exitDx=0;exitDy=0;" edge="1" parent="1" source="1JwUPKaG4YSBeHuStWOh-20" target="1JwUPKaG4YSBeHuStWOh-18">
          <mxGeometry width="50" height="50" relative="1" as="geometry">
            <mxPoint x="120" y="820" as="sourcePoint" />
            <mxPoint x="170" y="770" as="targetPoint" />
          </mxGeometry>
        </mxCell>
        <mxCell id="k-s2Nxh4-u5XfRPvkI3Q-6" value="" style="endArrow=none;html=1;rounded=0;entryX=-0.04;entryY=0.71;entryDx=0;entryDy=0;entryPerimeter=0;exitX=1;exitY=0;exitDx=0;exitDy=0;" edge="1" parent="1" source="1JwUPKaG4YSBeHuStWOh-19" target="1JwUPKaG4YSBeHuStWOh-20">
          <mxGeometry width="50" height="50" relative="1" as="geometry">
            <mxPoint x="100" y="830" as="sourcePoint" />
            <mxPoint x="150" y="780" as="targetPoint" />
          </mxGeometry>
        </mxCell>
        <mxCell id="k-s2Nxh4-u5XfRPvkI3Q-7" value="&lt;br&gt;&lt;pre style=&quot;margin: 4px 0px; font-size: 14px; padding: 0px; font-weight: 400; line-height: 1.7em; overflow-x: auto; max-width: 290px; color: rgb(0, 0, 0); font-style: normal; font-variant-ligatures: normal; font-variant-caps: normal; letter-spacing: normal; orphans: 2; text-align: left; text-indent: 0px; text-transform: none; widows: 2; word-spacing: 0px; -webkit-text-stroke-width: 0px; background-color: rgb(255, 255, 255); text-decoration-thickness: initial; text-decoration-style: initial; text-decoration-color: initial;&quot;&gt;1-&amp;gt;0 0&lt;br&gt;2-&amp;gt;0 2&lt;br&gt;3-&amp;gt;2 2&lt;br&gt;4-&amp;gt;0 -2&lt;br&gt;5-&amp;gt;2 -2&lt;br&gt;6-&amp;gt;2 -1&lt;br&gt;7-&amp;gt;2 1&lt;/pre&gt;&lt;br&gt;" style="rounded=0;whiteSpace=wrap;html=1;" vertex="1" parent="1">
          <mxGeometry x="520" y="750" width="70" height="190" as="geometry" />
        </mxCell>
        <mxCell id="k-s2Nxh4-u5XfRPvkI3Q-8" value="" style="endArrow=none;html=1;rounded=0;exitX=0.5;exitY=0;exitDx=0;exitDy=0;entryX=0.5;entryY=1;entryDx=0;entryDy=0;" edge="1" parent="1" source="KRmmrRrV53Fl_VYTLTsj-11" target="KRmmrRrV53Fl_VYTLTsj-15">
          <mxGeometry width="50" height="50" relative="1" as="geometry">
            <mxPoint x="260" y="990" as="sourcePoint" />
            <mxPoint x="310" y="940" as="targetPoint" />
          </mxGeometry>
        </mxCell>
        <mxCell id="k-s2Nxh4-u5XfRPvkI3Q-9" value="" style="endArrow=none;html=1;rounded=0;exitX=0;exitY=0;exitDx=0;exitDy=0;entryX=1;entryY=1;entryDx=0;entryDy=0;" edge="1" parent="1" source="KRmmrRrV53Fl_VYTLTsj-11" target="KRmmrRrV53Fl_VYTLTsj-14">
          <mxGeometry width="50" height="50" relative="1" as="geometry">
            <mxPoint x="60" y="1120" as="sourcePoint" />
            <mxPoint x="110" y="1070" as="targetPoint" />
          </mxGeometry>
        </mxCell>
        <mxCell id="k-s2Nxh4-u5XfRPvkI3Q-10" value="" style="endArrow=none;html=1;rounded=0;entryX=0;entryY=0.5;entryDx=0;entryDy=0;exitX=1;exitY=0.5;exitDx=0;exitDy=0;" edge="1" parent="1" source="KRmmrRrV53Fl_VYTLTsj-14" target="KRmmrRrV53Fl_VYTLTsj-12">
          <mxGeometry width="50" height="50" relative="1" as="geometry">
            <mxPoint x="60" y="1090" as="sourcePoint" />
            <mxPoint x="110" y="1040" as="targetPoint" />
          </mxGeometry>
        </mxCell>
        <mxCell id="k-s2Nxh4-u5XfRPvkI3Q-11" value="" style="endArrow=none;html=1;rounded=0;entryX=1;entryY=1;entryDx=0;entryDy=0;exitX=0.5;exitY=0;exitDx=0;exitDy=0;" edge="1" parent="1" source="KRmmrRrV53Fl_VYTLTsj-12" target="KRmmrRrV53Fl_VYTLTsj-15">
          <mxGeometry width="50" height="50" relative="1" as="geometry">
            <mxPoint x="60" y="1090" as="sourcePoint" />
            <mxPoint x="110" y="1040" as="targetPoint" />
          </mxGeometry>
        </mxCell>
      </root>
    </mxGraphModel>
  </diagram>
</mxfile>
